{"title":"The Strawbs - Grave New World FLAC","uid":4831852,"size":318745617,"categoryP":"audio","categoryS":"flac","magnet":"?xt=urn:btih:47450e3256ee74fc2c9867c73acb1779852b2c29&amp;dn=The+Strawbs+-+Grave+New+World+FLAC&amp;tr=udp%3A%2F%2Ftracker.openbittorrent.com%3A80&amp;tr=udp%3A%2F%2Fopen.demonii.com%3A1337&amp;tr=udp%3A%2F%2Ftracker.coppersurfer.tk%3A6969&amp;tr=udp%3A%2F%2Fexodus.desync.com%3A6969","seeders":2,"leechers":2,"uploader":"comingupforair","files":16,"time":1239164872,"description":"Exact Audio Copy V0.99 prebeta 3 from 28. July 2007\n\nEAC extraction logfile from 7. April 2009, 19:23\n\nStrawbs / Grave New World\n\nUsed drive  : ATAPI   DVD D  DH16D3P   Adapter: 0  ID: 1\n\nRead mode               : Secure\nUtilize accurate stream : Yes\nDefeat audio cache      : No\nMake use of C2 pointers : No\n\nRead offset correction                      : 6\nOverread into Lead-In and Lead-Out          : No\nFill up missing offset samples with silence : Yes\nDelete leading and trailing silent blocks   : No\nNull samples used in CRC calculations       : No\nUsed interface                              : Installed external ASPI interface\nGap handling                                : Not detected, thus appended to previous track\n\nUsed output format : Internal WAV Routines\nSample format      : 44.100 Hz; 16 Bit; Stereo\n\n\nTOC of the extracted CD\n\n     Track |   Start  |  Length  | Start sector | End sector \n    ---------------------------------------------------------\n        1  |  0:00.00 |  4:25.07 |         0    |    19881   \n        2  |  4:25.07 |  1:06.03 |     19882    |    24834   \n        3  |  5:31.10 |  5:31.65 |     24835    |    49724   \n        4  | 11:03.00 |  2:53.10 |     49725    |    62709   \n        5  | 13:56.10 |  4:13.10 |     62710    |    81694   \n        6  | 18:09.20 |  1:07.22 |     81695    |    86741   \n        7  | 19:16.42 |  4:18.13 |     86742    |   106104   \n        8  | 23:34.55 |  4:49.25 |    106105    |   127804   \n        9  | 28:24.05 |  1:56.27 |    127805    |   136531   \n       10  | 30:20.32 |  1:25.40 |    136532    |   142946   \n       11  | 31:45.72 |  3:07.53 |    142947    |   157024   \n       12  | 34:53.50 |  1:45.52 |    157025    |   164951   \n       13  | 36:39.27 |  2:43.65 |    164952    |   177241   \n       14  | 39:23.17 |  3:15.58 |    177242    |   191924   \n\n\nTrack  1\n\n     Filename E:MusicThe StrawbsGrave New WorldStrawbs - Grave New World - 01. Benedictus.wav\n\n     Peak level 99.9 %\n     Track quality 100.0 %\n     Copy CRC 0996AF65\n     Accurately ripped (confidence 3)  [CE61BB70]\n     Copy OK\n\nTrack  2\n\n     Filename E:MusicThe StrawbsGrave New WorldStrawbs - Grave New World - 02. Hey, Little Man... Thursday's Child.wav\n\n     Peak level 80.1 %\n     Track quality 100.0 %\n     Copy CRC 45EE2FD1\n     Accurately ripped (confidence 3)  [B473DCF0]\n     Copy OK\n\nTrack  3\n\n     Filename E:MusicThe StrawbsGrave New WorldStrawbs - Grave New World - 03. Queen Of Dreams.wav\n\n     Peak level 99.9 %\n     Track quality 100.0 %\n     Copy CRC DC1BF9C0\n     Accurately ripped (confidence 3)  [5592B74C]\n     Copy OK\n\nTrack  4\n\n     Filename E:MusicThe StrawbsGrave New WorldStrawbs - Grave New World - 04. Heavy Disguise.wav\n\n     Peak level 99.9 %\n     Track quality 100.0 %\n     Copy CRC A912913C\n     Accurately ripped (confidence 3)  [89B9DEA5]\n     Copy OK\n\nTrack  5\n\n     Filename E:MusicThe StrawbsGrave New WorldStrawbs - Grave New World - 05. New World.wav\n\n     Peak level 99.9 %\n     Track quality 100.0 %\n     Copy CRC 5180CF0C\n     Accurately ripped (confidence 3)  [6F14BE4E]\n     Copy OK\n\nTrack  6\n\n     Filename E:MusicThe StrawbsGrave New WorldStrawbs - Grave New World - 06. Hey, Little Man... Wednesday's Child.wav\n\n     Peak level 96.0 %\n     Track quality 100.0 %\n     Copy CRC EBD9F825\n     Accurately ripped (confidence 3)  [7C5E2E63]\n     Copy OK\n\nTrack  7\n\n     Filename E:MusicThe StrawbsGrave New WorldStrawbs - Grave New World - 07. The Flower And The Young Man.wav\n\n     Peak level 99.9 %\n     Track quality 100.0 %\n     Copy CRC E5A99336\n     Accurately ripped (confidence 3)  [B433AEA4]\n     Copy OK\n\nTrack  8\n\n     Filename E:MusicThe StrawbsGrave New WorldStrawbs - Grave New World - 08. Tomorrow.wav\n\n     Peak level 99.9 %\n     Track quality 100.0 %\n     Copy CRC D6B26F2C\n     Accurately ripped (confidence 3)  [A48F33DA]\n     Copy OK\n\nTrack  9\n\n     Filename E:MusicThe StrawbsGrave New WorldStrawbs - Grave New World - 09. On Growing Older.wav\n\n     Peak level 99.9 %\n     Track quality 100.0 %\n     Copy CRC 66363050\n     Accurately ripped (confidence 3)  [36CC7E46]\n     Copy OK\n\nTrack 10\n\n     Filename E:MusicThe StrawbsGrave New WorldStrawbs - Grave New World - 10. Ah Me, Ah My.wav\n\n     Peak level 99.9 %\n     Track quality 100.0 %\n     Copy CRC B1EF27B4\n     Accurately ripped (confidence 3)  [CEA49C56]\n     Copy OK\n\nTrack 11\n\n     Filename E:MusicThe StrawbsGrave New WorldStrawbs - Grave New World - 11. Is It Today, Lord .wav\n\n     Peak level 99.9 %\n     Track quality 100.0 %\n     Copy CRC 69B3E3B8\n     Accurately ripped (confidence 3)  [FF0C74E1]\n     Copy OK\n\nTrack 12\n\n     Filename E:MusicThe StrawbsGrave New WorldStrawbs - Grave New World - 12. The Journey's End.wav\n\n     Peak level 86.1 %\n     Track quality 100.0 %\n     Copy CRC 55ACC688\n     Accurately ripped (confidence 3)  [BE0DD3E5]\n     Copy OK\n\nTrack 13\n\n     Filename E:MusicThe StrawbsGrave New WorldStrawbs - Grave New World - 13. Here It Comes.wav\n\n     Peak level 99.9 %\n     Track quality 100.0 %\n     Copy CRC 23E81FF6\n     Accurately ripped (confidence 3)  [6370E5A5]\n     Copy OK\n\nTrack 14\n\n     Filename E:MusicThe StrawbsGrave New WorldStrawbs - Grave New World - 14. I'm Going Home.wav\n\n     Peak level 99.9 %\n     Track quality 100.0 %\n     Copy CRC 8BE1A2C8\n     Accurately ripped (confidence 3)  [060272CD]\n     Copy OK\n\n\nAll tracks accurately ripped\n\nNo errors occurred\n\nEnd of status report\n","torrent":{"xt":"urn:btih:47450e3256ee74fc2c9867c73acb1779852b2c29","amp;dn":"The+Strawbs+-+Grave+New+World+FLAC","amp;tr":["udp%3A%2F%2Ftracker.openbittorrent.com%3A80","udp%3A%2F%2Fopen.demonii.com%3A1337","udp%3A%2F%2Ftracker.coppersurfer.tk%3A6969","udp%3A%2F%2Fexodus.desync.com%3A6969"],"infoHash":"47450e3256ee74fc2c9867c73acb1779852b2c29","infoHashBuffer":{"type":"Buffer","data":[71,69,14,50,86,238,116,252,44,152,103,199,58,203,23,121,133,43,44,41]},"announce":[],"urlList":[]}}